<svg xmlns="http://www.w3.org/2000/svg" xmlns:xlink="http://www.w3.org/1999/xlink" viewBox="0 0 7410 3900" width="7410"  height="3900" ><defs><path id="a" d="M0-360l69.421 215.845 212.038-80.301L155.99-35.603l194.985 115.71-225.881 19.651 31.105 224.59L0 160l-156.198 164.349 31.105-224.59-225.881-19.651 194.986-115.711-125.471-188.853 212.038 80.301z"></path><path id="a" d="M0-360l69.421 215.845 212.038-80.301L155.99-35.603l194.985 115.71-225.881 19.651 31.105 224.59L0 160l-156.198 164.349 31.105-224.59-225.881-19.651 194.986-115.711-125.471-188.853 212.038 80.301z"></path><path id="a" d="M0-360l69.421 215.845 212.038-80.301L155.99-35.603l194.985 115.71-225.881 19.651 31.105 224.59L0 160l-156.198 164.349 31.105-224.59-225.881-19.651 194.986-115.711-125.471-188.853 212.038 80.301z"></path><path id="a" d="M0-360l69.421 215.845 212.038-80.301L155.99-35.603l194.985 115.71-225.881 19.651 31.105 224.59L0 160l-156.198 164.349 31.105-224.59-225.881-19.651 194.986-115.711-125.471-188.853 212.038 80.301z"></path><clipPath id="b"><path d="M0 0h6v3H0z"></path></clipPath><clipPath id="c"><path d="M0 0v1.5h6V3zm6 0H3v3H0z"></path></clipPath><use id="d" xlink:href="#a" transform="scale(2.1)"></use><clipPath id="c"><path d="M0 0v1.5h6V3zm6 0H3v3H0z"></path></clipPath><path id="e" d="M0-210L54.86-75.508l144.862 10.614L88.765 28.842l34.67 141.052L0 93.334l-123.435 76.56 34.67-141.052-110.957-93.736L-54.86-75.508z"></path></defs><path fill="#B22234" d="M0 0h7410v3900H0z"></path><path d="M0 450h7410m0 600H0m0 600h7410m0 600H0m0 600h7410m0 600H0" stroke="#FFFFFF" stroke-width="300px"></path><path fill="#3C3B6E" d="M0 0h2964v2100H0z"></path><g fill="#FFFFFF"><g id="d" fill="#FFFFFF"><g id="c" fill="#FFFFFF"><g id="e" fill="#FFFFFF"><g id="b" fill="#FFFFFF"><path id="a" d="M247 90l70.534 217.082-184.66-134.164h228.253L176.466 307.082z" fill="#FFFFFF"></path><use xlink:href="#a" y="420" fill="#FFFFFF"></use><use xlink:href="#a" y="840" fill="#FFFFFF"></use><use xlink:href="#a" y="1260" fill="#FFFFFF"></use></g><use xlink:href="#a" y="1680" fill="#FFFFFF"></use></g><use xlink:href="#b" x="247" y="210" fill="#FFFFFF"></use></g><use xlink:href="#c" x="494" fill="#FFFFFF"></use></g><use xlink:href="#d" x="988" fill="#FFFFFF"></use><use xlink:href="#c" x="1976" fill="#FFFFFF"></use><use xlink:href="#e" x="2470" fill="#FFFFFF"></use></g></svg>